<?xml version="1.0" standalone="no"?>
<!DOCTYPE svg PUBLIC "-//W3C//DTD SVG 20010904//EN"
 "http://www.w3.org/TR/2001/REC-SVG-20010904/DTD/svg10.dtd">
<svg version="1.0" xmlns="http://www.w3.org/2000/svg"
 width="133.000000pt" height="40.000000pt" viewBox="0 0 133.000000 40.000000"
 preserveAspectRatio="xMidYMid meet">

<g transform="translate(0.000000,40.000000) scale(0.100000,-0.100000)"
fill="#000000" stroke="none">
<path d="M60 210 c0 -31 20 -43 20 -12 1 16 1 16 14 0 7 -10 18 -18 24 -18 6
0 16 8 21 18 10 16 10 16 11 0 0 -10 7 -18 15 -18 10 0 15 10 15 30 0 23 -4
30 -20 30 -10 0 -24 -9 -31 -21 l-11 -21 -14 21 c-22 31 -44 27 -44 -9z"/>
<path d="M206 215 c-9 -13 -16 -26 -16 -28 0 -2 22 -3 49 -3 l50 0 -20 28
c-25 34 -42 35 -63 3z"/>
<path d="M307 210 c9 -16 23 -30 30 -30 12 0 43 37 43 52 0 18 -29 6 -36 -14
l-7 -23 -10 23 c-6 12 -16 22 -24 22 -11 0 -11 -6 4 -30z"/>
<path d="M390 210 c0 -28 2 -30 40 -30 38 0 40 2 30 20 -6 11 -16 20 -23 21
-7 0 -3 4 8 9 16 7 13 9 -17 9 -36 1 -38 -1 -38 -29z"/>
<path d="M480 210 c0 -16 5 -30 10 -30 6 0 10 7 10 15 0 8 5 15 10 15 6 0 13
-7 16 -15 4 -8 15 -15 25 -15 14 0 19 7 19 30 0 20 -5 30 -15 30 -8 0 -15 -7
-15 -17 0 -15 -1 -15 -18 0 -28 25 -42 21 -42 -13z"/>
<path d="M610 211 c0 -33 8 -38 29 -18 11 10 14 10 18 0 3 -7 11 -13 19 -13
11 0 14 8 12 28 -3 23 -8 27 -40 30 -36 3 -38 2 -38 -27z m45 9 c3 -5 1 -10
-4 -10 -6 0 -11 5 -11 10 0 6 2 10 4 10 3 0 8 -4 11 -10z"/>
<path d="M700 210 c0 -28 2 -30 39 -30 34 0 38 3 34 20 -3 11 -13 20 -22 21
-12 0 -11 2 4 9 16 7 13 9 -17 9 -36 1 -38 -1 -38 -29z"/>
<path d="M790 210 c0 -20 5 -30 15 -30 8 0 15 5 15 10 0 6 11 10 25 10 18 0
25 5 25 20 0 17 -7 20 -40 20 -38 0 -40 -2 -40 -30z m45 10 c3 -5 1 -10 -4
-10 -6 0 -11 5 -11 10 0 6 2 10 4 10 3 0 8 -4 11 -10z"/>
<path d="M882 213 c3 -25 7 -28 38 -28 31 0 35 3 38 28 2 19 -1 27 -12 27 -9
0 -16 -9 -16 -20 0 -11 -4 -20 -10 -20 -5 0 -10 9 -10 20 0 11 -7 20 -16 20
-11 0 -14 -8 -12 -27z"/>
<path d="M970 211 c0 -30 1 -31 45 -31 44 0 46 1 42 28 -3 24 -8 27 -45 30
-41 3 -42 2 -42 -27z"/>
<path d="M1070 210 c0 -30 1 -30 55 -30 54 0 55 0 55 30 0 20 -5 30 -15 30 -9
0 -15 -9 -15 -24 0 -19 -4 -22 -25 -18 -16 3 -25 11 -25 23 0 11 -7 19 -15 19
-10 0 -15 -10 -15 -30z"/>
<path d="M1194 225 c-11 -28 4 -45 41 -45 19 0 35 5 35 10 0 6 -11 10 -25 10
-14 0 -25 5 -25 10 0 6 11 10 25 10 14 0 25 5 25 10 0 16 -70 12 -76 -5z"/>
</g>
</svg>
