<?xml version="1.0" standalone="no"?>
<!DOCTYPE svg PUBLIC "-//W3C//DTD SVG 20010904//EN"
 "http://www.w3.org/TR/2001/REC-SVG-20010904/DTD/svg10.dtd">
<svg version="1.0" xmlns="http://www.w3.org/2000/svg"
 width="300.000000pt" height="300.000000pt" viewBox="0 0 300.000000 300.000000"
 preserveAspectRatio="xMidYMid meet">

<g transform="translate(0.000000,300.000000) scale(0.100000,-0.100000)"
fill="#000000" stroke="none">
<path d="M2773 1736 c-51 -23 -75 -70 -70 -135 3 -47 9 -59 40 -88 31 -28 44
-33 85 -33 52 0 86 17 74 37 -6 9 -17 10 -41 3 -19 -5 -42 -5 -56 0 -65 25
-75 132 -16 177 20 15 73 17 87 3 8 -8 15 -6 24 5 9 11 10 19 2 27 -17 17 -94
20 -129 4z"/>
<path d="M121 1633 c-13 -60 -25 -118 -28 -130 -4 -19 -1 -23 20 -23 22 0 25
5 37 76 l13 77 39 -77 c21 -42 40 -76 43 -76 3 0 21 33 42 73 l37 72 16 -70
15 -70 48 -3 c43 -3 48 -1 57 22 9 24 14 26 68 26 53 0 60 -2 70 -25 8 -17 20
-25 37 -25 25 0 25 1 12 33 -27 63 -112 227 -117 227 -3 0 -34 -56 -67 -125
-34 -68 -63 -119 -66 -112 -2 7 -14 63 -27 125 -13 61 -26 112 -30 112 -3 0
-26 -41 -50 -91 l-45 -90 -45 90 c-24 50 -47 91 -51 91 -3 0 -16 -48 -28 -107z
m432 -23 l15 -40 -39 0 -39 0 15 36 c8 20 15 38 15 40 0 2 4 4 8 4 5 0 16 -18
25 -40z"/>
<path d="M632 1731 c14 -39 114 -251 119 -251 3 0 33 59 67 130 l61 130 -30 0
c-16 0 -29 -5 -30 -12 0 -7 -15 -44 -34 -83 l-33 -70 -38 83 c-32 70 -41 82
-62 82 -13 0 -22 -4 -20 -9z"/>
<path d="M900 1610 l0 -130 66 0 c57 0 65 2 62 18 -2 12 -15 18 -46 20 -42 3
-42 3 -42 43 0 37 2 39 30 39 23 0 30 4 30 20 0 16 -7 20 -30 20 -28 0 -30 3
-30 35 0 34 1 35 40 35 29 0 40 4 40 15 0 12 -13 15 -60 15 l-60 0 0 -130z"/>
<path d="M1060 1610 l0 -130 25 0 c23 0 24 2 27 80 l3 81 70 -80 c39 -44 73
-80 78 -81 4 0 7 59 7 130 l0 130 -25 0 c-24 0 -25 -2 -25 -77 l0 -78 -71 78
c-39 42 -75 77 -80 77 -5 0 -9 -58 -9 -130z"/>
<path d="M1410 1610 c0 -123 1 -130 20 -130 17 0 20 7 20 50 0 42 3 50 18 50
12 0 29 -18 46 -50 22 -39 33 -50 52 -50 l25 0 -29 53 -30 52 24 28 c31 36 31
71 -1 102 -20 21 -34 25 -85 25 l-60 0 0 -130z m108 88 c7 -7 12 -24 12 -40 0
-29 -23 -48 -59 -48 -18 0 -21 6 -21 50 0 48 1 50 28 50 15 0 33 -5 40 -12z"/>
<path d="M1630 1610 l0 -130 65 0 c58 0 65 2 65 20 0 17 -7 20 -45 20 l-45 0
0 40 c0 38 2 40 30 40 23 0 30 4 30 20 0 16 -7 20 -30 20 -28 0 -30 3 -30 35
0 34 1 35 40 35 29 0 40 4 40 15 0 12 -13 15 -60 15 l-60 0 0 -130z"/>
<path d="M1800 1610 c0 -123 1 -130 20 -130 17 0 20 7 20 50 0 48 1 50 29 50
15 0 40 9 55 21 21 16 26 29 26 64 0 56 -24 75 -97 75 l-53 0 0 -130z m94 84
c23 -23 20 -51 -9 -70 -33 -22 -45 -11 -45 42 0 37 3 44 19 44 11 0 27 -7 35
-16z"/>
<path d="M1982 1636 c3 -94 6 -108 27 -130 20 -21 34 -26 71 -26 37 0 51 5 71
26 21 22 24 36 27 130 l4 104 -26 0 -26 0 0 -95 c0 -82 -3 -98 -20 -115 -11
-11 -24 -20 -30 -20 -5 0 -19 9 -30 20 -17 17 -20 33 -20 115 l0 95 -26 0 -26
0 4 -104z"/>
<path d="M2220 1609 l0 -131 76 4 c65 3 79 7 95 27 24 30 24 62 0 93 -13 16
-17 29 -10 39 15 23 10 65 -9 82 -13 12 -37 17 -85 17 l-67 0 0 -131z m119 83
c14 -26 -13 -62 -45 -62 -21 0 -24 4 -24 40 0 38 2 40 30 40 18 0 33 -7 39
-18z m11 -107 c17 -21 4 -61 -22 -69 -51 -13 -58 -9 -58 39 0 44 0 45 34 45
18 0 39 -7 46 -15z"/>
<path d="M2450 1610 l0 -130 60 0 c53 0 60 2 60 20 0 16 -7 20 -35 20 l-35 0
0 110 0 110 -25 0 -25 0 0 -130z"/>
<path d="M2610 1610 l0 -130 25 0 25 0 0 130 0 130 -25 0 -25 0 0 -130z"/>
</g>
</svg>
